<mxfile host="app.diagrams.net" modified="2023-11-03T10:55:16.511Z" agent="Mozilla/5.0 (Windows NT 10.0; Win64; x64) AppleWebKit/537.36 (KHTML, like Gecko) Chrome/112.0.0.0 Safari/537.36" version="22.0.8" etag="BpiCnK2byP2HBNIXjvy9" type="github">
  <diagram name="第 1 页" id="rlkv4i2bafHVCDTdPs53">
    <mxGraphModel>
      <root>
        <mxCell id="0" />
        <mxCell id="1" parent="0" />
      </root>
    </mxGraphModel>
  </diagram>
</mxfile>
